<svg version="1.2" xmlns="http://www.w3.org/2000/svg" viewBox="0 0 134 118" width="134" height="118">
	<title>patratel</title>
	<defs>
		<clipPath clipPathUnits="userSpaceOnUse" id="cp1">
			<path d="m0 0h425.2v117.42h-425.2z"/>
		</clipPath>
		<clipPath clipPathUnits="userSpaceOnUse" id="cp2">
			<path d="m0 0h425.2v117.42h-425.2z"/>
		</clipPath>
		<clipPath clipPathUnits="userSpaceOnUse" id="cp3">
			<path d="m0 0h425.2v117.42h-425.2z"/>
		</clipPath>
		<clipPath clipPathUnits="userSpaceOnUse" id="cp4">
			<path d="m163.7 78.63h261.5v23.66h-261.5z"/>
		</clipPath>
		<clipPath clipPathUnits="userSpaceOnUse" id="cp5">
			<path d="m163.7 78.63h261.5v23.66h-261.5z"/>
		</clipPath>
		<clipPath clipPathUnits="userSpaceOnUse" id="cp6">
			<path d="m163.7 78.63h261.5v23.66h-261.5z"/>
		</clipPath>
		<clipPath clipPathUnits="userSpaceOnUse" id="cp7">
			<path d="m163.7 78.63h261.5v23.66h-261.5z"/>
		</clipPath>
		<clipPath clipPathUnits="userSpaceOnUse" id="cp8">
			<path d="m163.7 78.63h261.5v23.66h-261.5z"/>
		</clipPath>
		<clipPath clipPathUnits="userSpaceOnUse" id="cp9">
			<path d="m163.7 78.63h261.5v23.66h-261.5z"/>
		</clipPath>
		<clipPath clipPathUnits="userSpaceOnUse" id="cp10">
			<path d="m163.7 78.63h261.5v23.66h-261.5z"/>
		</clipPath>
		<clipPath clipPathUnits="userSpaceOnUse" id="cp11">
			<path d="m163.7 78.63h261.5v23.66h-261.5z"/>
		</clipPath>
		<clipPath clipPathUnits="userSpaceOnUse" id="cp12">
			<path d="m163.7 78.63h261.5v23.66h-261.5z"/>
		</clipPath>
		<clipPath clipPathUnits="userSpaceOnUse" id="cp13">
			<path d="m0 0h425.2v117.42h-425.2z"/>
		</clipPath>
		<clipPath clipPathUnits="userSpaceOnUse" id="cp14">
			<path d="m0 0h425.2v117.42h-425.2z"/>
		</clipPath>
		<clipPath clipPathUnits="userSpaceOnUse" id="cp15">
			<path d="m0 0h425.2v117.42h-425.2z"/>
		</clipPath>
		<clipPath clipPathUnits="userSpaceOnUse" id="cp16">
			<path d="m0 0h425.2v117.42h-425.2z"/>
		</clipPath>
		<clipPath clipPathUnits="userSpaceOnUse" id="cp17">
			<path d="m0 0h425.2v117.42h-425.2z"/>
		</clipPath>
		<clipPath clipPathUnits="userSpaceOnUse" id="cp18">
			<path d="m0 0h425.2v117.42h-425.2z"/>
		</clipPath>
		<clipPath clipPathUnits="userSpaceOnUse" id="cp19">
			<path d="m0 0h425.2v117.42h-425.2z"/>
		</clipPath>
		<clipPath clipPathUnits="userSpaceOnUse" id="cp20">
			<path d="m0 0h425.2v117.42h-425.2z"/>
		</clipPath>
		<clipPath clipPathUnits="userSpaceOnUse" id="cp21">
			<path d="m0 0h425.2v117.42h-425.2z"/>
		</clipPath>
		<clipPath clipPathUnits="userSpaceOnUse" id="cp22">
			<path d="m0 0h425.2v117.42h-425.2z"/>
		</clipPath>
		<clipPath clipPathUnits="userSpaceOnUse" id="cp23">
			<path d="m0 0h425.2v117.42h-425.2z"/>
		</clipPath>
		<clipPath clipPathUnits="userSpaceOnUse" id="cp24">
			<path d="m0 0h425.2v117.42h-425.2z"/>
		</clipPath>
		<clipPath clipPathUnits="userSpaceOnUse" id="cp25">
			<path d="m0 0h425.2v117.42h-425.2z"/>
		</clipPath>
		<clipPath clipPathUnits="userSpaceOnUse" id="cp26">
			<path d="m0 0h425.2v117.42h-425.2z"/>
		</clipPath>
		<clipPath clipPathUnits="userSpaceOnUse" id="cp27">
			<path d="m0 0h425.2v117.42h-425.2z"/>
		</clipPath>
		<clipPath clipPathUnits="userSpaceOnUse" id="cp28">
			<path d="m0 0h425.2v117.42h-425.2z"/>
		</clipPath>
		<clipPath clipPathUnits="userSpaceOnUse" id="cp29">
			<path d="m0 0h425.2v117.42h-425.2z"/>
		</clipPath>
		<clipPath clipPathUnits="userSpaceOnUse" id="cp30">
			<path d="m0 0h425.2v117.42h-425.2z"/>
		</clipPath>
		<clipPath clipPathUnits="userSpaceOnUse" id="cp31">
			<path d="m0 0h425.2v117.42h-425.2z"/>
		</clipPath>
	</defs>
	<style>
		.s0 { fill: #ffffff } 
	</style>
	<g id="Layer">
		<g id="main_wide_pozitiv_00000115509606166610896930000007143377676292318380_">
			<g id="Layer">
				<g id="Clip-Path" clip-path="url(#cp1)">
					<g id="Layer">
						<g id="Clip-Path" clip-path="url(#cp2)">
							<g id="Layer">
								<g id="Clip-Path" clip-path="url(#cp3)">
									<g id="Layer" style="opacity: .9">
										<g id="Layer">
											<g id="Clip-Path" clip-path="url(#cp4)">
												<path id="Layer" class="s0" d="m166.6 81.7v8.3h9.9v2.7h-9.9v9.2h-2.9v-22.9h14v2.7z"/>
											</g>
											<g id="Clip-Path" clip-path="url(#cp5)">
												<path id="Layer" fill-rule="evenodd" class="s0" d="m190.6 95.1v-9.2c0-4.5 2.9-7.3 8.6-7.3 5.7 0 8.6 2.8 8.6 7.3v9.2c0 4.4-2.9 7.2-8.6 7.2-5.7 0-8.6-2.8-8.6-7.2zm14.4-0.3v-8.6c0-3.1-1.6-4.9-5.8-4.9-4.1 0-5.8 1.8-5.8 4.9v8.6c0 3.1 1.6 4.8 5.8 4.8 4.2 0 5.8-1.7 5.8-4.8z"/>
											</g>
											<g id="Clip-Path" clip-path="url(#cp6)">
												<path id="Layer" fill-rule="evenodd" class="s0" d="m234 101.9l-4.1-9.5h-6.3v9.5h-2.9v-22.9h9c4.4 0 7 2.3 7 6v1.4c0 2.7-1.4 4.7-3.9 5.5l4.2 10c0 0-3 0-3 0zm-10.4-12.2h6.2c2.8 0 4-1.1 4-3.3v-1.4c0-2.1-1.3-3.3-3.9-3.3h-6.3z"/>
											</g>
											<g id="Clip-Path" clip-path="url(#cp7)">
												<path id="Layer" class="s0" d="m268.8 81.7v8.3h10v2.7h-10v9.2h-2.8v-22.9h13.9v2.7z"/>
											</g>
											<g id="Clip-Path" clip-path="url(#cp8)">
												<path id="Layer" class="s0" d="m292.8 95.1v-16h2.9v15.7c0 3.1 1.7 4.8 5.5 4.8 3.8 0 5.5-1.7 5.5-4.8v-15.7h2.8v16c0 4.4-2.8 7.2-8.3 7.2-5.5 0-8.4-2.8-8.4-7.2z"/>
											</g>
											<g id="Clip-Path" clip-path="url(#cp9)">
												<path id="Layer" class="s0" d="m339.6 81.7h-7.2v20.2h-2.8v-20.2h-7.2v-2.7h17.2z"/>
											</g>
											<g id="Clip-Path" clip-path="url(#cp10)">
												<path id="Layer" class="s0" d="m352.5 95.1v-16h2.8v15.7c0 3.1 1.7 4.8 5.5 4.8 3.9 0 5.5-1.7 5.5-4.8v-15.7h2.9v16c0 4.4-2.9 7.2-8.4 7.2-5.4 0-8.3-2.8-8.3-7.2z"/>
											</g>
											<g id="Clip-Path" clip-path="url(#cp11)">
												<path id="Layer" fill-rule="evenodd" class="s0" d="m395.4 101.9l-4.2-9.5h-6.2v9.5h-2.9v-22.9h8.9c4.5 0 7 2.3 7 6v1.4c0 2.7-1.4 4.7-3.9 5.5l4.2 10c0 0-2.9 0-2.9 0zm-10.5-12.2h6.3c2.7 0 4-1.1 4-3.3v-1.4c0-2.1-1.3-3.3-4-3.3h-6.3z"/>
											</g>
											<g id="Clip-Path" clip-path="url(#cp12)">
												<path id="Layer" class="s0" d="m414.1 81.7v7.6h9.6v2.7h-9.6v7.2h11.1v2.7h-14v-22.9h14v2.7z"/>
											</g>
										</g>
									</g>
								</g>
							</g>
						</g>
						<g id="Clip-Path" clip-path="url(#cp13)">
							<path id="Layer" fill-rule="evenodd" class="s0" d="m196.2 50.2h-20.6l-3 6.9h-9.6l18-40.2h9.8l18 40.2h-9.7zm-10.3-24.3l-6.9 16.3h13.8z"/>
						</g>
						<g id="Clip-Path" clip-path="url(#cp14)">
							<g id="Layer">
								<g id="Clip-Path" clip-path="url(#cp15)">
									<path id="Layer" class="s0" d="m236.1 53.3c-3.4 3.4-7.5 4.4-11.1 4.4-8.2 0-15.5-4.6-15.5-14.8 0-9.5 7.2-14.8 15.5-14.8 4.1 0 7.4 0.9 10.2 3.9l-4.5 5.2c-1.8-1.3-3.7-1.7-5.4-1.7-4.1 0-7.4 2.7-7.4 7.4 0 4.6 3.4 7.2 7.2 7.2 1.9 0 4.4-0.8 5.8-2.2z"/>
								</g>
								<g id="Clip-Path" clip-path="url(#cp16)">
									<path id="Layer" fill-rule="evenodd" class="s0" d="m261.5 28.7h7.7v28.3h-7.4l-0.5-3.5c-1.9 3-6 4.1-8.7 4.2-8.5 0-14.6-5.5-14.6-14.8 0-9.4 6.4-14.9 14.8-14.8 3.6 0 6.9 1.4 8.4 3.9zm-15.3 14.1c0 4.8 3.4 7.5 7.5 7.5 4.6 0 7.5-3.6 7.5-7.2 0-4-2.6-7.8-7.5-7.8-4.1 0-7.5 2.8-7.5 7.5z"/>
								</g>
								<g id="Clip-Path" clip-path="url(#cp17)">
									<path id="Layer" fill-rule="evenodd" class="s0" d="m305.9 16.9v40.1h-7.4l-0.5-3.6c-2.6 3.4-5.8 4.2-9.4 4.2-8.3 0-14-5.9-14-14.7 0-9.2 5.8-14.8 14.1-14.8 3.4 0 6.5 1.1 8.9 4.1v-15.2zm-23 25.9c0 4.1 2.5 7.3 7 7.3 3.7 0 7.6-1.9 7.6-7.3 0-4.8-3.9-7.3-7.6-7.3-4.3 0-7 3-7 7.3z"/>
								</g>
								<g id="Clip-Path" clip-path="url(#cp18)">
									<path id="Layer" fill-rule="evenodd" class="s0" d="m319.7 45.6c0.4 2.7 3.1 5 7.7 5 2.3 0 5.4-0.6 7.4-2.3l4.6 5.2c-3 3-7.9 4.2-12.2 4.2-10.2 0-15.9-6.1-15.9-15.1 0-8.6 5.8-14.6 15.1-14.6 9.6 0 15.9 6 14.1 17.6h-20.8zm13.4-6.1c-0.1-3.1-3.3-4.5-6.7-4.5-3.3 0-5.9 1.7-6.7 4.5z"/>
								</g>
								<g id="Clip-Path" clip-path="url(#cp19)">
									<path id="Layer" class="s0" d="m364.3 57v-15.2c0-3.7-1.5-6.2-4.9-6.2-3.2 0-5.1 3.1-5.1 6.3v15.1h-8.2v-28.3h7.2l0.6 3.2c1.8-3.1 5-3.8 7.4-3.8 3.1 0 6.5 1.1 8.3 5.3 2.5-3.9 5.2-5.4 9.4-5.4 5.9 0 11.3 3 11.3 13.6v15.5h-8.3v-15.4c0-3.5-1-5.9-4.3-5.9-3.3 0-5.2 2.8-5.2 6v15.2h-8.2z"/>
								</g>
								<g id="Clip-Path" clip-path="url(#cp20)">
									<path id="Layer" class="s0" d="m425.2 28.7l-17.4 41.1h-9l5.9-13.6-11.9-27.5h9.3l7 17.8 7-17.8z"/>
								</g>
								<g id="Clip-Path" clip-path="url(#cp21)">
									<path id="Layer" class="s0" d="m107.1 73.8v20.4l-39.8 23.2-40.3-23.3v-20.3l40.1 23.4z"/>
								</g>
								<g id="Clip-Path" clip-path="url(#cp22)">
									<path id="Layer" class="s0" d="m44.8 12.9l22.4-12.9 22.2 12.9-22.4 13z"/>
								</g>
								<g id="Clip-Path" clip-path="url(#cp23)">
									<path id="Layer" class="s0" d="m22.4 25.9l22.4-13 22.2 13-22.4 12.9z"/>
								</g>
								<g id="Clip-Path" clip-path="url(#cp24)">
									<path id="Layer" class="s0" d="m0 38.8l22.4-12.9 22.2 12.9-22.4 12.9z"/>
								</g>
								<g id="Clip-Path" clip-path="url(#cp25)">
									<path id="Layer" class="s0" d="m67 25.9l22.4-13 22.3 13-22.4 12.9z"/>
								</g>
								<g id="Clip-Path" clip-path="url(#cp26)">
									<path id="Layer" class="s0" d="m44.6 38.8l22.4-12.9 22.3 12.9-22.4 12.9z"/>
								</g>
								<g id="Clip-Path" clip-path="url(#cp27)">
									<path id="Layer" class="s0" d="m89.3 38.8l22.4-12.9 22.3 12.9-22.4 12.9z"/>
								</g>
								<g id="Clip-Path" clip-path="url(#cp28)">
									<path id="Layer" class="s0" d="m22.2 51.7l22.4-12.9 22.3 12.9-22.4 12.9z"/>
								</g>
								<g id="Clip-Path" clip-path="url(#cp29)">
									<path id="Layer" class="s0" d="m134 38.8l-0.2 19.4-16.8 9.5 0.2-19.4z"/>
								</g>
								<g id="Clip-Path" clip-path="url(#cp30)">
									<path id="Layer" class="s0" d="m66.9 51.7l22.4-12.9 22.2 12.9-22.4 12.9z"/>
								</g>
								<g id="Clip-Path" clip-path="url(#cp31)">
									<path id="Layer" class="s0" d="m44.5 64.6l22.4-12.9 22.2 12.9-22.4 13z"/>
								</g>
							</g>
						</g>
					</g>
				</g>
			</g>
		</g>
	</g>
</svg>